<svg width="24" height="24" viewBox="0 0 24 24" fill="none" xmlns="http://www.w3.org/2000/svg">
  <circle cx="12" cy="12" r="12" fill="#4970A2" fill-opacity="0.2"/>
  <path d="M7.333 13.75v1.05c0 .653 0 .98.127 1.23.112.219.29.398.51.51.249.127.576.127 1.228.127H12M7.333 13.75v-3.5m0 3.5H12M7.333 10.25V9.2c0-.653 0-.98.127-1.23.112-.22.29-.398.51-.51.25-.127.576-.127 1.23-.127H12m-4.667 2.917H12M12 7.333h2.8c.653 0 .98 0 1.23.127.219.112.398.29.51.51.127.249.127.576.127 1.228v1.052M12 7.333v2.917m0 0v3.5m0-3.5h4.667M12 13.75v2.917m0-2.917h4.667m-4.667 2.917h2.802c.652 0 .978 0 1.227-.127.22-.112.398-.29.51-.51.127-.25.127-.576.127-1.228v-1.052m0 0V10.25" stroke="#153E85" stroke-linecap="round" stroke-linejoin="round"/>
</svg>
