<svg width="228" height="40" viewBox="0 0 228 40" fill="none" xmlns="http://www.w3.org/2000/svg">
<path d="M40.0519 20C40.0519 31.0439 31.0841 40 20.026 40C8.96772 40 0 31.0439 0 20C0 8.95608 8.96772 0 20.026 0C31.0841 0 40.0519 8.95608 40.0519 20Z" fill="white"/>
<path d="M29.4198 18.6038C26.2374 16.4429 22.1631 17.3206 20.0193 20.5719C18.235 23.2847 15.5387 23.6238 14.5002 23.6238C11.0915 23.6238 8.76797 21.2302 8.07561 18.7568C8.07561 18.7568 8.0623 18.7103 8.05564 18.6837C8.04898 18.6571 8.04233 18.6304 8.03567 18.6038C7.76271 17.5666 7.69613 17.0813 7.69613 15.9842C7.69613 10.0733 13.7745 3.48417 22.5225 3.48417C31.2706 3.48417 36.6166 10.2993 37.9415 14.0892C37.9148 14.0161 37.8948 13.9563 37.8748 13.8897C35.3251 6.47619 28.2947 1.15039 20.006 1.15039C9.59352 1.15039 1.13843 9.58792 1.13843 20.0002C1.13843 29.3087 7.85591 37.2674 17.1832 37.2674C24.613 37.2674 29.6128 33.1052 31.9031 27.3672C33.1613 24.2288 32.2692 20.5387 29.4198 18.6038Z" fill="#003668"/>
<path d="M38.0545 14.4482C36.9494 10.7515 31.7831 3.47754 22.5225 3.47754C13.7744 3.47754 7.69604 10.0667 7.69604 15.9776C7.69604 17.0746 7.76262 17.5667 8.03558 18.5972C7.9224 18.1451 7.86248 17.693 7.86248 17.2542C7.86248 11.0906 14.034 6.82861 20.3853 6.82861C28.9803 6.82861 35.9508 13.7834 35.9508 22.3672C35.9508 29.0959 32.0761 34.9203 26.4437 37.7196C33.7071 35.0999 38.8867 28.1517 38.8867 19.9935C38.8867 18.0653 38.6271 16.3632 38.0612 14.4482" fill="#E6002D"/>
<path d="M56.6007 6.82654V8.41674H48.373V6.82654H51.5243V5.07011H53.516V6.82654H56.6007ZM56.3343 12.8383C56.3343 13.3203 56.2345 13.7747 56.0348 14.2124C55.8351 14.6502 55.5576 15.0269 55.2136 15.3482C54.8697 15.6586 54.4702 15.9134 54.0153 16.1018C53.5604 16.2902 53.0777 16.3844 52.5672 16.3844C52.0569 16.3844 51.5686 16.2902 51.1193 16.1018C50.6644 15.9134 50.276 15.6641 49.9375 15.3482C49.5936 15.0269 49.3162 14.6446 49.1165 14.2124C48.9168 13.7747 48.8169 13.3203 48.8169 12.8383C48.8169 12.3562 48.9168 11.9019 49.1165 11.4642C49.3162 11.0264 49.5936 10.6552 49.9375 10.3449C50.2704 10.0236 50.6644 9.76316 51.1193 9.57474C51.5742 9.38641 52.0569 9.29216 52.5672 9.29216C53.0777 9.29216 53.566 9.38641 54.0153 9.57474C54.4702 9.76316 54.8697 10.0236 55.2136 10.3449C55.5576 10.6552 55.8351 11.032 56.0348 11.4642C56.2345 11.9019 56.3343 12.3562 56.3343 12.8383ZM54.559 12.8383C54.559 12.2897 54.3704 11.8243 53.9876 11.4309C53.6047 11.0431 53.1387 10.8436 52.5784 10.8436C52.0181 10.8436 51.5631 11.0375 51.1803 11.4309C50.7975 11.8187 50.6033 12.2897 50.6033 12.8383C50.6033 13.3868 50.7975 13.8522 51.1803 14.2346C51.5686 14.6169 52.0347 14.8108 52.5784 14.8108C53.1221 14.8108 53.6047 14.6169 53.9876 14.2346C54.3649 13.8522 54.559 13.3868 54.559 12.8383ZM61.0057 4.8374H62.8144V19.7642H61.0057V12.8882H59.2637V19.6812H57.5549V4.85402H59.2637V11.1982H61.0057V4.8374Z" fill="white"/>
<path d="M72.407 8.63841C72.407 9.14258 72.3015 9.61358 72.0908 10.0623C71.8799 10.5112 71.5914 10.899 71.2363 11.2315C70.8923 11.5639 70.4818 11.8298 70.0158 12.0238C69.5442 12.2177 69.0449 12.3175 68.5067 12.3175C67.9686 12.3175 67.447 12.2177 66.9755 12.0238C66.4983 11.8298 66.0878 11.5639 65.7439 11.2315C65.3888 10.899 65.1003 10.5056 64.8895 10.0623C64.6787 9.61358 64.5732 9.14258 64.5732 8.63841C64.5732 8.13416 64.6787 7.65766 64.8895 7.20885C65.1003 6.75451 65.3888 6.37219 65.7439 6.04529C66.0878 5.71284 66.4983 5.44134 66.9755 5.24188C67.447 5.04241 67.9575 4.94268 68.5067 4.94268C69.056 4.94268 69.5442 5.04241 70.0158 5.24188C70.4873 5.44134 70.8923 5.71284 71.2363 6.04529C71.5914 6.36665 71.8799 6.75451 72.0908 7.20885C72.3015 7.6632 72.407 8.1397 72.407 8.63841ZM70.6094 8.63841C70.6094 8.05659 70.4041 7.56346 69.9881 7.1479C69.5719 6.73789 69.0782 6.52734 68.4957 6.52734C67.9131 6.52734 67.4027 6.73234 66.9977 7.1479C66.5871 7.56346 66.3874 8.05659 66.3874 8.63841C66.3874 9.22016 66.5927 9.72991 66.9977 10.1344C67.4027 10.5388 67.9075 10.7439 68.4957 10.7439C69.0837 10.7439 69.5719 10.5388 69.9881 10.1344C70.3986 9.72433 70.6094 9.22566 70.6094 8.63841ZM76.174 16.5838C76.174 17.0881 76.0686 17.559 75.8633 17.9967C75.658 18.44 75.3807 18.8278 75.0311 19.1603C74.6816 19.4927 74.2766 19.7587 73.7995 19.9582C73.3224 20.1521 72.823 20.2518 72.3015 20.2518C71.78 20.2518 71.2807 20.1521 70.8091 19.9582C70.3376 19.7642 69.9326 19.4983 69.5886 19.1603C69.2335 18.8278 68.9506 18.44 68.7509 17.9967C68.5511 17.5535 68.4512 17.0825 68.4512 16.5838C68.4512 16.0852 68.5511 15.6087 68.7509 15.171C68.9506 14.7277 69.2335 14.3454 69.5886 14.0074C69.9326 13.6749 70.3431 13.409 70.8091 13.2151C71.2807 13.0212 71.7745 12.9214 72.3015 12.9214C72.8286 12.9214 73.3279 13.0212 73.7995 13.2151C74.2766 13.409 74.6816 13.6749 75.0311 14.0074C75.3751 14.3398 75.6525 14.7277 75.8633 15.171C76.0686 15.6142 76.174 16.0852 76.174 16.5838ZM74.3654 16.5672C74.3654 16.0076 74.1656 15.5311 73.7606 15.1267C73.3557 14.7222 72.8785 14.5227 72.3182 14.5227C71.7578 14.5227 71.2752 14.7222 70.8702 15.1267C70.4596 15.5256 70.2599 16.0076 70.2599 16.5672C70.2599 17.1268 70.4651 17.62 70.8702 18.0134C71.2752 18.4067 71.7634 18.6062 72.3182 18.6062C72.873 18.6062 73.3557 18.4067 73.7606 18.0134C74.1601 17.62 74.3654 17.1324 74.3654 16.5672ZM76.8453 12.6332H75.0034V4.8374H76.8453V6.24476H78.9924V7.85159H76.8453V9.44183H78.9924V11.0652H76.8453V12.6388V12.6332Z" fill="white"/>
<path d="M93.6056 14.1404V15.7804H87.6584V19.7642H85.7995V15.7804H79.8689V14.1404H93.6114H93.6056ZM86.7373 4.8374L92.9008 11.4808L91.5586 12.6332L86.7314 7.46373L81.9216 12.6332L80.5624 11.4808L86.7265 4.8374H86.7373Z" fill="white"/>
<path d="M99.6692 4.75391L104.28 12.101L102.804 13.0374L99.6692 7.9177L96.5846 13.1704L95.0759 12.2174L99.6692 4.75391ZM97.8777 14.478V17.8246H107.93V19.4647H96.0187V14.478H97.8777ZM107.542 14.3893H105.7V4.83702H107.542V8.26676H109.689V10.0897H107.542V14.3893Z" fill="white"/>
<path d="M110.909 14.2622H124.652V15.9022H118.705V19.753H116.846V15.9022H110.915V14.2622H110.909ZM113.839 6.97046H121.695V5.08105H123.537V12.2619H112.008V5.08105H113.833V6.97046H113.839ZM121.7 8.57725H113.844V10.6385H121.7V8.57725Z" fill="white"/>
<path d="M139.008 9.57818C139.008 8.75485 138.726 8.11208 138.164 7.64985C137.601 7.18763 136.685 6.95652 135.416 6.95652H133.664V12.1999H135.416C136.685 12.1999 137.601 11.9688 138.164 11.5065C138.726 11.0299 139.008 10.3871 139.008 9.57818ZM141.496 9.57818C141.496 10.9504 141.012 12.0771 140.046 12.9582C139.094 13.8249 137.731 14.2582 135.957 14.2582H133.664V19.6532H131.197V4.89818H135.957C137.731 4.89818 139.094 5.33874 140.046 6.21985C141.012 7.08652 141.496 8.20596 141.496 9.57818ZM151.013 4.63818C153.134 4.63818 154.929 5.38208 156.4 6.86985C157.872 8.34318 158.607 10.1488 158.607 12.2865C158.607 14.4243 157.872 16.2298 156.4 17.7032C154.929 19.1765 153.134 19.9132 151.013 19.9132C148.893 19.9132 147.097 19.1765 145.626 17.7032C144.155 16.2298 143.419 14.4243 143.419 12.2865C143.419 10.1488 144.155 8.34318 145.626 6.86985C147.097 5.38208 148.893 4.63818 151.013 4.63818ZM151.013 17.8332C152.412 17.8332 153.617 17.3132 154.626 16.2732C155.636 15.1898 156.141 13.8609 156.141 12.2865C156.141 10.6976 155.636 9.36152 154.626 8.27818C153.617 7.23818 152.412 6.71818 151.013 6.71818C149.615 6.71818 148.41 7.23818 147.4 8.27818C146.391 9.36152 145.886 10.6976 145.886 12.2865C145.886 13.8609 146.391 15.1898 147.4 16.2732C148.41 17.3132 149.615 17.8332 151.013 17.8332ZM175.953 4.89818V19.6532H173.594V7.77985L169.743 19.6532H167.45L163.621 7.77985V19.6532H161.241V4.89818H164.876L168.597 16.3815L172.318 4.89818H175.953ZM178.273 16.6632L179.895 15.0165C180.342 15.9409 180.898 16.6271 181.561 17.0749C182.268 17.5515 182.989 17.7898 183.725 17.7898C184.503 17.7898 185.167 17.5876 185.715 17.1832C186.263 16.7788 186.537 16.2515 186.537 15.6015C186.537 15.0238 186.256 14.5543 185.693 14.1932C185.145 13.8321 184.547 13.5288 183.898 13.2832C183.249 13.0376 182.57 12.7776 181.864 12.5032C180.739 12.0843 179.931 11.5498 179.441 10.8998C178.965 10.2354 178.727 9.53485 178.727 8.79818C178.727 7.65707 179.21 6.68208 180.176 5.87318C181.143 5.04985 182.332 4.63818 183.746 4.63818C185.232 4.63818 186.437 5.02096 187.359 5.78652C187.835 6.16208 188.167 6.57374 188.355 7.02152L186.883 8.58152C186.754 8.32152 186.516 8.03263 186.169 7.71485C185.463 7.06485 184.612 6.73985 183.616 6.73985C182.997 6.73985 182.448 6.91318 181.972 7.25985C181.51 7.60652 181.28 8.06874 181.28 8.64652C181.28 9.5276 182.239 10.3004 184.157 10.9648C184.503 11.0804 184.864 11.2104 185.239 11.3549C186.523 11.8459 187.482 12.4309 188.117 13.1098C188.766 13.7743 189.09 14.5976 189.09 15.5798C189.09 16.7498 188.593 17.7609 187.597 18.6132C186.602 19.4798 185.326 19.9132 183.768 19.9132C182.326 19.9132 181.136 19.5882 180.198 18.9382C179.289 18.3026 178.648 17.5443 178.273 16.6632Z" fill="white"/>
<path d="M53.4174 30.2218C53.4174 29.7784 53.266 29.4323 52.9631 29.1834C52.6602 28.9345 52.167 28.8101 51.4836 28.8101H50.54V31.6334H51.4836C52.167 31.6334 52.6602 31.509 52.9631 31.2601C53.266 31.0034 53.4174 30.6573 53.4174 30.2218ZM54.7571 30.2218C54.7571 30.9607 54.4969 31.5673 53.9766 32.0418C53.464 32.5084 52.7301 32.7418 51.7748 32.7418H50.54V35.6468H49.2119V27.7018H51.7748C52.7301 27.7018 53.464 27.939 53.9766 28.4134C54.4969 28.8801 54.7571 29.4828 54.7571 30.2218ZM58.3053 35.7868C57.4743 35.7868 56.7636 35.499 56.1734 34.9234C55.5831 34.3478 55.288 33.6401 55.288 32.8001C55.288 31.9523 55.5831 31.2407 56.1734 30.6651C56.7636 30.0895 57.4743 29.8018 58.3053 29.8018C59.1441 29.8018 59.8547 30.0895 60.4372 30.6651C61.0274 31.2407 61.3225 31.9523 61.3225 32.8001C61.3225 33.6401 61.0274 34.3478 60.4372 34.9234C59.8547 35.499 59.1441 35.7868 58.3053 35.7868ZM58.3053 34.7134C58.779 34.7134 59.1828 34.5345 59.5168 34.1768C59.8508 33.8112 60.0178 33.3523 60.0178 32.8001C60.0178 32.2478 59.8508 31.789 59.5168 31.4234C59.1828 31.0578 58.779 30.8751 58.3053 30.8751C57.8393 30.8751 57.4354 31.0578 57.0937 31.4234C56.7597 31.789 56.5928 32.2478 56.5928 32.8001C56.5928 33.3523 56.7597 33.8112 57.0937 34.1768C57.4354 34.5345 57.8393 34.7134 58.3053 34.7134ZM62.5214 35.6468V29.9418H63.7446V30.7934C63.931 30.5134 64.1601 30.2957 64.4319 30.1401C64.7581 29.9457 65.1425 29.8484 65.5853 29.8484H65.6784V31.0034H65.5386C65.0027 31.0034 64.5756 31.1668 64.2572 31.4934C63.9621 31.8123 63.8145 32.3101 63.8145 32.9868V35.6468H62.5214ZM68.7266 28.0984V29.9418H69.9614V30.9801H68.7266V33.8851C68.7266 34.1651 68.7926 34.3557 68.9246 34.4568C69.0567 34.5578 69.2431 34.6084 69.4838 34.6084H69.9614V35.6468H69.1809C68.5674 35.6468 68.1208 35.5107 67.8412 35.2384C67.5616 34.9584 67.4218 34.5501 67.4218 34.0134V30.9801H66.4432V29.9418H67.4218V28.0984H68.7266ZM76.0124 35.6468H74.6727V27.7018H79.7053V28.8101H76.0124V31.1084H79.6005V32.2051H76.0124V35.6468ZM83.5346 31.9601C83.9698 31.9601 84.4199 31.9601 84.8859 31.9601C84.8859 31.5945 84.7386 31.3184 84.4432 31.1318C84.1562 30.9451 83.7409 30.8518 83.1969 30.8518H83.1619C82.6494 30.8518 82.1018 30.9723 81.5194 31.2134L81.1932 30.1984C81.7911 29.9418 82.4513 29.8095 83.1736 29.8018H83.1969C84.152 29.8018 84.8859 29.9884 85.3985 30.3618C85.9111 30.7273 86.1674 31.3107 86.1674 32.1118V35.6468H84.9325V35.0168C84.692 35.2578 84.3933 35.4484 84.0355 35.5884C83.686 35.7207 83.329 35.7868 82.9639 35.7868C82.2882 35.7868 81.7368 35.6078 81.3097 35.2501C80.8903 34.8845 80.6806 34.4373 80.6806 33.9084C80.6806 33.3251 80.9446 32.8428 81.4728 32.4618C81.9542 32.1273 82.6415 31.9601 83.5346 31.9601ZM83.1852 34.7601C83.5196 34.7601 83.8491 34.6784 84.1753 34.5151C84.5015 34.3518 84.7386 34.1612 84.8859 33.9434V32.9751C84.4591 32.9751 84.0746 32.9751 83.7326 32.9751C83.0804 32.9751 82.6261 33.0607 82.3698 33.2318C82.1135 33.4184 81.9853 33.644 81.9853 33.9084C81.9853 34.1573 82.0902 34.3634 82.2999 34.5268C82.5173 34.6823 82.8125 34.7601 83.1852 34.7601ZM87.359 32.8001C87.359 31.9757 87.6652 31.2718 88.2793 30.6884C88.9001 30.0973 89.6847 29.8018 90.6325 29.8018C91.3781 29.8018 92.0771 30.039 92.7295 30.5134L92.3101 31.5284C91.7426 31.0928 91.1834 30.8751 90.6325 30.8751C90.05 30.8751 89.5757 31.0618 89.2113 31.4351C88.846 31.8007 88.6637 32.2557 88.6637 32.8001C88.6637 33.3368 88.846 33.7918 89.2113 34.1651C89.5757 34.5307 90.05 34.7134 90.6325 34.7134C91.1917 34.7134 91.7584 34.4957 92.3334 34.0601L92.7528 35.0751C92.1237 35.5495 91.4164 35.7868 90.6325 35.7868C89.6847 35.7868 88.9001 35.4951 88.2793 34.9118C87.6652 34.3207 87.359 33.6168 87.359 32.8001ZM94.0351 35.6468V29.9418H95.3398V35.6468H94.0351ZM95.5029 28.1568C95.5029 28.3745 95.4214 28.5651 95.2583 28.7284C95.0952 28.8918 94.9013 28.9734 94.6758 28.9734C94.4511 28.9734 94.2564 28.8918 94.0933 28.7284C93.9302 28.5651 93.8487 28.3745 93.8487 28.1568C93.8487 27.9312 93.9302 27.7368 94.0933 27.5734C94.2564 27.4101 94.4511 27.3284 94.6758 27.3284C94.9013 27.3284 95.0952 27.4101 95.2583 27.5734C95.4214 27.7368 95.5029 27.9312 95.5029 28.1568ZM97.004 35.6468V27.1768H98.2972V35.6468H97.004ZM99.9514 35.6468V29.9418H101.256V35.6468H99.9514ZM101.419 28.1568C101.419 28.3745 101.338 28.5651 101.175 28.7284C101.012 28.8918 100.817 28.9734 100.592 28.9734C100.367 28.9734 100.173 28.8918 100.01 28.7284C99.8466 28.5651 99.765 28.3745 99.765 28.1568C99.765 27.9312 99.8466 27.7368 100.01 27.5734C100.173 27.4101 100.367 27.3284 100.592 27.3284C100.817 27.3284 101.012 27.4101 101.175 27.5734C101.338 27.7368 101.419 27.9312 101.419 28.1568ZM104.585 28.0984V29.9418H105.82V30.9801H104.585V33.8851C104.585 34.1651 104.652 34.3557 104.784 34.4568C104.916 34.5578 105.102 34.6084 105.343 34.6084H105.82V35.6468H105.04C104.427 35.6468 103.98 35.5107 103.7 35.2384C103.42 34.9584 103.281 34.5501 103.281 34.0134V30.9801H102.302V29.9418H103.281V28.0984H104.585ZM108.745 35.4251L106.508 29.9418H107.848L109.398 33.8384L110.935 29.9418H112.263L109.095 37.8634H107.767L108.745 35.4251ZM124.233 27.7018V35.6468H122.963V29.2534L120.889 35.6468H119.654L117.592 29.2534V35.6468H116.311V27.7018H118.268L120.272 33.8851L122.275 27.7018H124.233ZM128.324 31.9601C128.759 31.9601 129.209 31.9601 129.675 31.9601C129.675 31.5945 129.528 31.3184 129.233 31.1318C128.946 30.9451 128.53 30.8518 127.986 30.8518H127.951C127.439 30.8518 126.891 30.9723 126.309 31.2134L125.983 30.1984C126.581 29.9418 127.241 29.8095 127.963 29.8018H127.986C128.942 29.8018 129.675 29.9884 130.188 30.3618C130.701 30.7273 130.957 31.3107 130.957 32.1118V35.6468H129.722V35.0168C129.482 35.2578 129.183 35.4484 128.825 35.5884C128.476 35.7207 128.119 35.7868 127.753 35.7868C127.078 35.7868 126.527 35.6078 126.099 35.2501C125.68 34.8845 125.47 34.4373 125.47 33.9084C125.47 33.3251 125.735 32.8428 126.262 32.4618C126.744 32.1273 127.431 31.9601 128.324 31.9601ZM127.975 34.7601C128.309 34.7601 128.639 34.6784 128.965 34.5151C129.291 34.3518 129.528 34.1612 129.675 33.9434V32.9751C129.249 32.9751 128.864 32.9751 128.522 32.9751C127.87 32.9751 127.415 33.0607 127.159 33.2318C126.903 33.4184 126.775 33.644 126.775 33.9084C126.775 34.1573 126.88 34.3634 127.089 34.5268C127.307 34.6823 127.602 34.7601 127.975 34.7601ZM133.838 32.7768V35.6468H132.545V29.9418H133.791V30.7001C133.938 30.4357 134.156 30.2218 134.443 30.0584C134.738 29.8873 135.053 29.8018 135.387 29.8018C136.054 29.8018 136.59 30.0312 136.995 30.4901C137.406 30.949 137.612 31.5634 137.612 32.3334V35.6468H136.319V32.6601C136.319 32.0534 136.218 31.6062 136.016 31.3184C135.821 31.0228 135.519 30.8751 135.108 30.8751C134.898 30.8751 134.691 30.9451 134.49 31.0851C134.288 31.2251 134.132 31.4157 134.024 31.6568C133.899 31.9368 133.838 32.3101 133.838 32.7768ZM141.658 31.9601C142.092 31.9601 142.543 31.9601 143.009 31.9601C143.009 31.5945 142.861 31.3184 142.567 31.1318C142.279 30.9451 141.863 30.8518 141.32 30.8518H141.285C140.773 30.8518 140.225 30.9723 139.643 31.2134L139.316 30.1984C139.914 29.9418 140.575 29.8095 141.297 29.8018H141.32C142.275 29.8018 143.009 29.9884 143.522 30.3618C144.034 30.7273 144.291 31.3107 144.291 32.1118V35.6468H143.056V35.0168C142.815 35.2578 142.516 35.4484 142.159 35.5884C141.809 35.7207 141.452 35.7868 141.087 35.7868C140.411 35.7868 139.86 35.6078 139.433 35.2501C139.013 34.8845 138.804 34.4373 138.804 33.9084C138.804 33.3251 139.068 32.8428 139.596 32.4618C140.077 32.1273 140.764 31.9601 141.658 31.9601ZM141.308 34.7601C141.642 34.7601 141.972 34.6784 142.299 34.5151C142.625 34.3518 142.861 34.1612 143.009 33.9434V32.9751C142.582 32.9751 142.197 32.9751 141.856 32.9751C141.204 32.9751 140.749 33.0607 140.493 33.2318C140.237 33.4184 140.109 33.644 140.109 33.9084C140.109 34.1573 140.213 34.3634 140.423 34.5268C140.64 34.6823 140.936 34.7601 141.308 34.7601ZM150.013 33.1734C150.037 32.9168 150.037 32.664 150.013 32.4151C149.967 31.9873 149.808 31.6295 149.536 31.3418C149.233 31.0228 148.857 30.8634 148.406 30.8634C147.909 30.8634 147.513 31.0501 147.217 31.4234C146.93 31.789 146.786 32.2478 146.786 32.8001C146.786 33.3523 146.93 33.8112 147.217 34.1768C147.513 34.5423 147.909 34.7251 148.406 34.7251C148.857 34.7251 149.233 34.5657 149.536 34.2468C149.808 33.959 149.967 33.6012 150.013 33.1734ZM148.219 37.9218C147.342 37.9218 146.592 37.7001 145.971 37.2568L146.355 36.2301C146.938 36.6501 147.559 36.8601 148.219 36.8601C148.794 36.8601 149.244 36.6968 149.571 36.3701C149.905 36.0434 150.071 35.6778 150.071 35.2734V34.9234C149.598 35.499 149 35.7868 148.277 35.7868C147.447 35.7868 146.771 35.4912 146.25 34.9001C145.738 34.3012 145.482 33.6012 145.482 32.8001C145.482 31.9912 145.738 31.2912 146.25 30.7001C146.771 30.1012 147.447 29.8018 148.277 29.8018C148.953 29.8018 149.536 30.074 150.025 30.6184V29.9418H151.318V34.6784C151.318 35.7595 151.047 36.5684 150.503 37.1051C149.967 37.6495 149.206 37.9218 148.219 37.9218ZM153.829 32.3451H156.998C156.982 31.9718 156.827 31.6334 156.532 31.3301C156.237 31.019 155.86 30.8634 155.402 30.8634C154.936 30.8634 154.552 31.0307 154.249 31.3651C154.023 31.614 153.883 31.9407 153.829 32.3451ZM153.853 33.3601C153.93 33.7101 154.093 33.9978 154.342 34.2234C154.706 34.5578 155.188 34.7251 155.786 34.7251C156.416 34.7251 157.006 34.4918 157.557 34.0251L157.942 34.9818C157.328 35.5184 156.598 35.7868 155.752 35.7868C154.788 35.7868 154.004 35.5145 153.398 34.9701C152.8 34.4178 152.501 33.6984 152.501 32.8118C152.501 31.9328 152.769 31.2134 153.305 30.6534C153.841 30.0857 154.54 29.8018 155.402 29.8018C156.256 29.8018 156.951 30.0818 157.487 30.6418C158.031 31.2018 158.303 31.8978 158.303 32.7301C158.303 32.9557 158.283 33.1657 158.245 33.3601H153.853ZM165.553 29.8018C166.221 29.8018 166.741 30.0312 167.114 30.4901C167.487 30.949 167.673 31.5634 167.673 32.3334V35.6468H166.392V32.6601C166.392 32.0534 166.31 31.6062 166.147 31.3184C165.984 31.0228 165.716 30.8751 165.343 30.8751C165.126 30.8751 164.936 30.9373 164.772 31.0618C164.609 31.1862 164.478 31.369 164.376 31.6101C164.276 31.859 164.225 32.209 164.225 32.6601V35.6468H162.943V32.6601C162.943 32.0534 162.859 31.6062 162.687 31.3184C162.524 31.0228 162.26 30.8751 161.895 30.8751C161.678 30.8751 161.491 30.9373 161.336 31.0618C161.181 31.1862 161.049 31.369 160.94 31.6101C160.832 31.8901 160.777 32.2634 160.777 32.7301V32.7184V35.6468H159.495V29.9418H160.707V30.7001C161.025 30.1012 161.519 29.8018 162.186 29.8018C162.901 29.8018 163.425 30.1478 163.759 30.8401C163.954 30.4978 164.187 30.2412 164.458 30.0701C164.738 29.8912 165.103 29.8018 165.553 29.8018ZM170.166 32.3451H173.335C173.319 31.9718 173.164 31.6334 172.869 31.3301C172.574 31.019 172.197 30.8634 171.739 30.8634C171.273 30.8634 170.889 31.0307 170.586 31.3651C170.36 31.614 170.22 31.9407 170.166 32.3451ZM170.19 33.3601C170.267 33.7101 170.43 33.9978 170.679 34.2234C171.043 34.5578 171.525 34.7251 172.123 34.7251C172.752 34.7251 173.342 34.4918 173.894 34.0251L174.279 34.9818C173.664 35.5184 172.935 35.7868 172.088 35.7868C171.125 35.7868 170.341 35.5145 169.735 34.9701C169.137 34.4178 168.838 33.6984 168.838 32.8118C168.838 31.9328 169.106 31.2134 169.642 30.6534C170.178 30.0857 170.877 29.8018 171.739 29.8018C172.593 29.8018 173.288 30.0818 173.824 30.6418C174.368 31.2018 174.64 31.8978 174.64 32.7301C174.64 32.9557 174.62 33.1657 174.581 33.3601H170.19ZM177.125 32.7768V35.6468H175.832V29.9418H177.079V30.7001C177.227 30.4357 177.444 30.2218 177.731 30.0584C178.026 29.8873 178.341 29.8018 178.675 29.8018C179.343 29.8018 179.879 30.0312 180.282 30.4901C180.694 30.949 180.9 31.5634 180.9 32.3334V35.6468H179.607V32.6601C179.607 32.0534 179.506 31.6062 179.304 31.3184C179.11 31.0228 178.807 30.8751 178.395 30.8751C178.185 30.8751 177.98 30.9451 177.778 31.0851C177.576 31.2251 177.421 31.4157 177.312 31.6568C177.188 31.9368 177.125 32.3101 177.125 32.7768ZM184.028 28.0984V29.9418H185.263V30.9801H184.028V33.8851C184.028 34.1651 184.094 34.3557 184.227 34.4568C184.359 34.5578 184.545 34.6084 184.786 34.6084H185.263V35.6468H184.483C183.87 35.6468 183.423 35.5107 183.143 35.2384C182.864 34.9584 182.724 34.5501 182.724 34.0134V30.9801H181.745V29.9418H182.724V28.0984H184.028ZM189.544 34.0368L190.417 33.1501C190.658 33.6478 190.957 34.0173 191.314 34.2584C191.695 34.5151 192.083 34.6434 192.479 34.6434C192.899 34.6434 193.256 34.5345 193.551 34.3168C193.846 34.099 193.994 33.8151 193.994 33.4651C193.994 33.154 193.842 32.9012 193.54 32.7068C193.244 32.5123 192.922 32.349 192.573 32.2168C192.223 32.0845 191.858 31.9445 191.478 31.7968C190.872 31.5712 190.437 31.2834 190.173 30.9334C189.917 30.5757 189.788 30.1984 189.788 29.8018C189.788 29.1873 190.048 28.6623 190.569 28.2268C191.089 27.7834 191.73 27.5618 192.491 27.5618C193.291 27.5618 193.939 27.7678 194.437 28.1801C194.693 28.3823 194.871 28.604 194.973 28.8451L194.18 29.6851C194.11 29.5451 193.982 29.3895 193.796 29.2184C193.415 28.8684 192.957 28.6934 192.421 28.6934C192.087 28.6934 191.792 28.7868 191.536 28.9734C191.287 29.1601 191.163 29.409 191.163 29.7201C191.163 30.1945 191.679 30.6107 192.712 30.9684C192.899 31.0307 193.093 31.1007 193.295 31.1784C193.986 31.4428 194.502 31.7578 194.844 32.1234C195.194 32.4812 195.369 32.9245 195.369 33.4534C195.369 34.0834 195.101 34.6278 194.565 35.0868C194.029 35.5534 193.342 35.7868 192.503 35.7868C191.726 35.7868 191.085 35.6118 190.581 35.2618C190.091 34.9195 189.745 34.5112 189.544 34.0368ZM197.892 35.4251L195.656 29.9418H196.995L198.545 33.8384L200.083 29.9418H201.411L198.242 37.8634H196.914L197.892 35.4251ZM201.724 34.5851L202.54 33.7568C202.765 34.0678 203.014 34.309 203.285 34.4801C203.55 34.6434 203.833 34.7251 204.136 34.7251C204.431 34.7251 204.676 34.6668 204.87 34.5501C205.072 34.4257 205.173 34.2662 205.173 34.0718C205.173 33.8773 205.076 33.7257 204.881 33.6168C204.695 33.5001 204.466 33.3951 204.194 33.3018C203.884 33.2007 203.565 33.0878 203.239 32.9634C202.804 32.8078 202.482 32.6057 202.272 32.3568C202.07 32.1001 201.969 31.8123 201.969 31.4934C201.969 31.0268 202.187 30.6301 202.621 30.3034C203.064 29.969 203.585 29.8018 204.182 29.8018C204.82 29.8018 205.34 29.9534 205.743 30.2568C205.953 30.4123 206.116 30.6107 206.233 30.8518L205.441 31.6218C205.332 31.4428 205.208 31.2951 205.068 31.1784C204.811 30.9607 204.497 30.8518 204.124 30.8518C203.899 30.8518 203.705 30.9062 203.542 31.0151C203.379 31.124 203.297 31.2562 203.297 31.4118C203.297 31.5751 203.387 31.7151 203.565 31.8318C203.751 31.9407 204.023 32.0495 204.38 32.1584C204.513 32.1973 204.66 32.244 204.823 32.2984C205.375 32.4773 205.794 32.7107 206.081 32.9984C206.369 33.2862 206.512 33.6323 206.512 34.0368C206.512 34.5112 206.283 34.9234 205.825 35.2734C205.367 35.6157 204.788 35.7868 204.089 35.7868C203.492 35.7868 202.967 35.6468 202.516 35.3668C202.214 35.1878 201.95 34.9273 201.724 34.5851ZM209.284 28.0984V29.9418H210.519V30.9801H209.284V33.8851C209.284 34.1651 209.351 34.3557 209.482 34.4568C209.614 34.5578 209.801 34.6084 210.041 34.6084H210.519V35.6468H209.738C209.125 35.6468 208.678 35.5107 208.399 35.2384C208.119 34.9584 207.979 34.5501 207.979 34.0134V30.9801H207.001V29.9418H207.979V28.0984H209.284ZM212.623 32.3451H215.792C215.776 31.9718 215.621 31.6334 215.326 31.3301C215.031 31.019 214.655 30.8634 214.196 30.8634C213.73 30.8634 213.346 31.0307 213.043 31.3651C212.817 31.614 212.677 31.9407 212.623 32.3451ZM212.647 33.3601C212.724 33.7101 212.887 33.9978 213.136 34.2234C213.501 34.5578 213.982 34.7251 214.58 34.7251C215.21 34.7251 215.8 34.4918 216.351 34.0251L216.736 34.9818C216.122 35.5184 215.392 35.7868 214.546 35.7868C213.583 35.7868 212.798 35.5145 212.192 34.9701C211.594 34.4178 211.295 33.6984 211.295 32.8118C211.295 31.9328 211.563 31.2134 212.099 30.6534C212.635 30.0857 213.334 29.8018 214.196 29.8018C215.051 29.8018 215.745 30.0818 216.281 30.6418C216.825 31.2018 217.097 31.8978 217.097 32.7301C217.097 32.9557 217.078 33.1657 217.039 33.3601H212.647ZM224.348 29.8018C225.015 29.8018 225.536 30.0312 225.909 30.4901C226.282 30.949 226.468 31.5634 226.468 32.3334V35.6468H225.187V32.6601C225.187 32.0534 225.105 31.6062 224.942 31.3184C224.779 31.0228 224.511 30.8751 224.138 30.8751C223.92 30.8751 223.73 30.9373 223.567 31.0618C223.404 31.1862 223.272 31.369 223.171 31.6101C223.07 31.859 223.02 32.209 223.02 32.6601V35.6468H221.738V32.6601C221.738 32.0534 221.653 31.6062 221.482 31.3184C221.319 31.0228 221.054 30.8751 220.69 30.8751C220.472 30.8751 220.285 30.9373 220.131 31.0618C219.975 31.1862 219.843 31.369 219.735 31.6101C219.626 31.8901 219.572 32.2634 219.572 32.7301V32.7184V35.6468H218.29V29.9418H219.502V30.7001C219.819 30.1012 220.313 29.8018 220.981 29.8018C221.695 29.8018 222.219 30.1478 222.554 30.8401C222.748 30.4978 222.981 30.2412 223.253 30.0701C223.532 29.8912 223.897 29.8018 224.348 29.8018Z" fill="white" fill-opacity="0.4"/>
</svg>
